<?xml version="1.0" encoding="utf-8"?>
<!-- Generator: Adobe Illustrator 23.0.3, SVG Export Plug-In . SVG Version: 6.00 Build 0)  -->
<svg version="1.1" id="Icons" xmlns="http://www.w3.org/2000/svg" xmlns:xlink="http://www.w3.org/1999/xlink" x="0px" y="0px"
	 viewBox="0 0 32 32" style="enable-background:new 0 0 32 32;" xml:space="preserve">
<style type="text/css">
	.st0{fill:none;stroke:#fff;stroke-width:2;stroke-linecap:round;stroke-linejoin:round;stroke-miterlimit:10;}
</style>
<path class="st0" d="M22,28L22,28c-3.9,1.3-8.1,1.3-12,0l0,0L9,10h14L22,28z"/>
<path class="st0" d="M17,10c0-3.3,2.7-6,6-6s6,2.7,6,6s-2.7,6-6,6"/>
<path class="st0" d="M10,19h2.8c1.5,0,2.9-0.3,4.2-1l0,0c1.3-0.7,2.8-1,4.2-1h1.4"/>
<line class="st0" x1="23" y1="7" x2="23" y2="7"/>
<line class="st0" x1="26" y1="10" x2="26" y2="10"/>
<path class="st0" d="M7,4h4c1.1,0,2,0.9,2,2v4"/>
<line class="st0" x1="13" y1="14" x2="13" y2="19"/>
</svg>