<svg width="463" height="435" viewBox="0 0 463 435" fill="none" xmlns="http://www.w3.org/2000/svg">
<path d="M409 230.5C409 274.924 394.534 318.14 367.791 353.611C341.047 389.083 303.48 414.882 260.771 427.106C218.062 439.33 172.534 437.314 131.072 421.363C89.6109 405.412 54.4711 376.394 30.9672 338.697C7.46337 301 -3.12608 256.675 0.800344 212.425C4.72677 168.175 22.9555 126.407 52.7298 93.4378C82.504 60.4685 122.204 38.0912 165.827 29.6901C209.449 21.289 254.62 27.3211 294.51 46.8741L204.5 230.5H409Z" fill="#F2E86D"/>
<path d="M409 230.5C409 274.922 394.536 318.136 367.794 353.607C341.053 389.078 303.488 414.877 260.782 427.103C218.076 439.328 172.55 437.316 131.089 421.369C89.6279 405.423 54.4868 376.409 30.9797 338.717C7.47254 301.025 -3.12215 256.703 0.79775 212.454C4.71765 168.206 22.9389 126.437 52.7062 93.464C82.4734 60.491 122.168 38.1074 165.786 29.6979C209.405 21.2884 254.576 27.3105 294.468 46.8534L278.104 80.2546C245.468 64.2661 208.513 59.3393 172.827 66.2193C137.142 73.0993 104.667 91.4119 80.3141 118.388C55.9609 145.364 41.0536 179.536 37.8467 215.737C34.6397 251.937 43.3075 288.198 62.5391 319.035C81.7708 349.872 110.521 373.608 144.441 386.654C178.361 399.701 215.607 401.347 250.546 391.345C285.485 381.343 316.217 360.236 338.095 331.216C359.972 302.197 371.806 266.843 371.806 230.5L409 230.5Z" fill="#BD8662"/>
<path d="M189.41 179.976C187.394 179.976 185.863 179.939 184.818 179.864C181.607 193.901 179.815 203.645 179.442 209.096C176.231 210.664 171.34 211.448 164.77 211.448C163.351 211.448 162.38 211.411 161.858 211.336C162.38 206.931 164.62 195.88 168.578 178.184C172.535 160.413 174.514 149.213 174.514 144.584C174.514 143.688 173.991 142.531 172.946 141.112C171.975 139.619 170.967 138.387 169.922 137.416L168.466 135.96L168.802 134.28C181.346 132.413 191.5 131.48 199.266 131.48C214.647 131.48 222.338 137.752 222.338 150.296C222.338 158.659 219.575 165.715 214.05 171.464C208.524 177.139 200.311 179.976 189.41 179.976ZM187.618 172.472C193.367 172.472 197.698 170.307 200.61 165.976C203.596 161.645 205.09 155.859 205.09 148.616C205.09 145.629 204.53 143.203 203.41 141.336C202.29 139.395 200.647 138.424 198.482 138.424C197.063 138.424 195.308 138.685 193.218 139.208C192.023 147.048 189.783 158.136 186.498 172.472H187.618Z" fill="#941B0C"/>
<path d="M95.7501 240.384L117.142 241.28C119.531 241.28 121.809 241.168 123.974 240.944L124.982 244.528L122.854 246.992C118.822 251.845 114.342 257.669 109.414 264.464C104.486 271.184 101.798 274.843 101.35 275.44C108.219 277.904 113.409 279.136 116.918 279.136C118.038 279.136 118.822 278.912 119.27 278.464C119.942 277.792 120.801 276.336 121.846 274.096L125.206 274.88C124.683 283.317 122.966 288.693 120.054 291.008C118.635 292.128 116.881 292.688 114.79 292.688C112.699 292.688 109.339 291.419 104.71 288.88C100.155 286.267 96.4595 284.587 93.6221 283.84C90.4861 288.096 88.3208 290.224 87.1261 290.224C85.9315 290.224 84.4381 289.253 82.6461 287.312C80.8541 285.296 79.9581 283.728 79.9581 282.608C79.9581 281.488 81.1155 279.584 83.4301 276.896C85.8195 274.133 88.2835 272.752 90.8221 272.752C91.3448 272.752 91.7555 272.789 92.0541 272.864C98.1021 266.965 103.553 260.283 108.406 252.816C101.985 252.891 97.5048 253.115 94.9661 253.488C92.4275 253.787 89.9635 254.608 87.5741 255.952C86.9768 253.339 86.6781 250.651 86.6781 247.888C86.6781 245.051 86.7901 243.035 87.0141 241.84C87.9848 240.869 90.8968 240.384 95.7501 240.384ZM142.125 240.384L163.517 241.28C165.906 241.28 168.184 241.168 170.349 240.944L171.357 244.528L169.229 246.992C165.197 251.845 160.717 257.669 155.789 264.464C150.861 271.184 148.173 274.843 147.725 275.44C154.594 277.904 159.784 279.136 163.293 279.136C164.413 279.136 165.197 278.912 165.645 278.464C166.317 277.792 167.176 276.336 168.221 274.096L171.581 274.88C171.058 283.317 169.341 288.693 166.429 291.008C165.01 292.128 163.256 292.688 161.165 292.688C159.074 292.688 155.714 291.419 151.085 288.88C146.53 286.267 142.834 284.587 139.997 283.84C136.861 288.096 134.696 290.224 133.501 290.224C132.306 290.224 130.813 289.253 129.021 287.312C127.229 285.296 126.333 283.728 126.333 282.608C126.333 281.488 127.49 279.584 129.805 276.896C132.194 274.133 134.658 272.752 137.197 272.752C137.72 272.752 138.13 272.789 138.429 272.864C144.477 266.965 149.928 260.283 154.781 252.816C148.36 252.891 143.88 253.115 141.341 253.488C138.802 253.787 136.338 254.608 133.949 255.952C133.352 253.339 133.053 250.651 133.053 247.888C133.053 245.051 133.165 243.035 133.389 241.84C134.36 240.869 137.272 240.384 142.125 240.384ZM207.72 243.632C207.87 243.483 208.28 242.512 208.952 240.72C212.462 240.72 217.166 241.765 223.064 243.856C221.198 250.053 219.704 256.549 218.584 263.344C217.464 270.064 216.904 274.88 216.904 277.792C216.904 280.629 217.203 282.048 217.8 282.048C218.248 282.048 219.891 281.339 222.728 279.92L224.072 279.248L226.088 283.168C225.416 283.765 224.52 284.512 223.4 285.408C222.355 286.304 220.339 287.536 217.352 289.104C214.366 290.597 211.678 291.344 209.288 291.344C204.659 291.344 201.971 289.253 201.224 285.072C196.446 289.253 192.115 291.344 188.232 291.344C184.424 291.344 181.176 289.851 178.488 286.864C175.875 283.877 174.568 279.173 174.568 272.752C174.568 262.747 176.622 254.869 180.728 249.12C184.835 243.296 189.8 240.384 195.624 240.384C199.806 240.384 203.838 241.467 207.72 243.632ZM194.952 281.824C196.744 281.824 198.76 281.115 201 279.696C201.523 269.168 203.278 258.752 206.264 248.448C204.024 247.477 202.12 246.992 200.552 246.992C197.864 246.992 195.55 249.643 193.608 254.944C191.742 260.171 190.808 265.957 190.808 272.304C190.808 278.651 192.19 281.824 194.952 281.824ZM230.397 290.336H229.613C229.464 289.739 229.389 288.395 229.389 286.304C229.389 284.139 230.397 278.389 232.413 269.056C234.429 259.723 235.437 254.384 235.437 253.04C235.437 250.725 234.392 248.187 232.301 245.424L231.293 244.08L231.405 242.624C235.437 241.504 241.896 240.944 250.781 240.944C251.677 242.885 252.125 245.611 252.125 249.12C252.946 247.776 254.664 245.984 257.277 243.744C259.89 241.504 262.578 240.384 265.341 240.384C269.373 240.384 271.389 243.893 271.389 250.912C271.016 251.36 270.493 251.957 269.821 252.704C269.224 253.376 267.954 254.347 266.013 255.616C264.146 256.885 262.317 257.669 260.525 257.968C260.45 257.968 259.816 256.96 258.621 254.944C257.426 252.928 256.53 251.92 255.933 251.92C254.066 252.592 252.424 253.712 251.005 255.28C247.57 270.736 245.853 280.741 245.853 285.296C245.853 286.939 245.89 288.096 245.965 288.768C243.352 289.813 238.162 290.336 230.397 290.336ZM292.138 247.328C292.138 250.464 291.13 255.877 289.114 263.568C287.098 271.184 286.09 276.187 286.09 278.576C286.09 280.891 286.426 282.048 287.098 282.048C287.546 282.048 289.263 281.339 292.25 279.92L293.594 279.248L295.498 283.168C294.826 283.765 293.93 284.512 292.81 285.408C291.69 286.304 289.599 287.536 286.538 289.104C283.476 290.597 280.639 291.344 278.026 291.344C275.412 291.344 273.359 290.56 271.866 288.992C270.372 287.349 269.626 285.184 269.626 282.496C269.626 279.733 270.559 274.88 272.426 267.936C274.292 260.917 275.226 256.363 275.226 254.272C275.226 251.136 274.255 248.187 272.314 245.424L271.306 244.08L271.418 242.624C275.375 241.504 281.796 240.944 290.682 240.944C291.652 242.064 292.138 244.192 292.138 247.328ZM279.37 228.736C277.876 227.243 277.13 225.264 277.13 222.8C277.13 220.336 278.138 218.171 280.154 216.304C282.244 214.437 284.634 213.504 287.322 213.504C290.01 213.504 292.1 214.251 293.594 215.744C295.087 217.237 295.834 219.216 295.834 221.68C295.834 224.069 294.751 226.197 292.586 228.064C290.495 229.931 288.143 230.864 285.53 230.864C282.916 230.864 280.863 230.155 279.37 228.736ZM332.845 243.632C332.995 243.483 333.405 242.512 334.077 240.72C337.587 240.72 342.291 241.765 348.189 243.856C346.323 250.053 344.829 256.549 343.709 263.344C342.589 270.064 342.029 274.88 342.029 277.792C342.029 280.629 342.328 282.048 342.925 282.048C343.373 282.048 345.016 281.339 347.853 279.92L349.197 279.248L351.213 283.168C350.541 283.765 349.645 284.512 348.525 285.408C347.48 286.304 345.464 287.536 342.477 289.104C339.491 290.597 336.803 291.344 334.413 291.344C329.784 291.344 327.096 289.253 326.349 285.072C321.571 289.253 317.24 291.344 313.357 291.344C309.549 291.344 306.301 289.851 303.613 286.864C301 283.877 299.693 279.173 299.693 272.752C299.693 262.747 301.747 254.869 305.853 249.12C309.96 243.296 314.925 240.384 320.749 240.384C324.931 240.384 328.963 241.467 332.845 243.632ZM320.077 281.824C321.869 281.824 323.885 281.115 326.125 279.696C326.648 269.168 328.403 258.752 331.389 248.448C329.149 247.477 327.245 246.992 325.677 246.992C322.989 246.992 320.675 249.643 318.733 254.944C316.867 260.171 315.933 265.957 315.933 272.304C315.933 278.651 317.315 281.824 320.077 281.824Z" fill="#941B0C"/>
<path d="M350.003 21.6135C378.854 36.0486 403.881 57.1048 423.039 83.0616C442.196 109.018 454.941 139.14 460.231 170.964L258.5 204.5L350.003 21.6135Z" fill="#F2E86D"/>
<path d="M350.003 21.6135C378.854 36.0486 403.881 57.1048 423.039 83.0616C442.196 109.018 454.941 139.14 460.231 170.964L423.536 177.064C419.208 151.029 408.782 126.387 393.109 105.151C377.436 83.916 356.962 66.6899 333.359 54.8806L350.003 21.6135Z" fill="#BD8662"/>
<path d="M319.309 167.917C316.25 163.548 315.15 159.188 316.009 154.836C316.879 150.424 318.991 147.044 322.347 144.695C324.409 143.251 326.459 142.571 328.496 142.654C330.534 142.738 332.153 143.636 333.352 145.349C334.527 147.026 335.081 148.748 335.015 150.513C334.983 152.253 334.576 153.867 333.794 155.352C332.169 158.313 330.435 160.673 328.594 162.431L327.445 163.469C329.99 166.584 332.486 167.284 334.933 165.571C335.772 164.984 336.516 164.15 337.166 163.07C337.816 161.989 338.256 161.056 338.487 160.27L338.833 159.09L341.266 159.887C341.255 160.467 341.051 161.365 340.653 162.582C340.254 163.798 339.835 164.873 339.395 165.806C338.151 168.344 336.323 170.457 333.911 172.146C331.5 173.834 328.995 174.312 326.398 173.578C323.801 172.845 321.438 170.957 319.309 167.917ZM325.594 160.937C327.156 159.375 328.046 157.632 328.262 155.71C328.479 153.787 327.926 151.882 326.605 149.995C325.283 148.108 324.063 147.555 322.945 148.339C321.617 149.269 321.381 151.126 322.238 153.912C323.105 156.638 324.224 158.98 325.594 160.937ZM346.295 128.863C346.764 129.681 347.159 130.915 347.481 132.564C346.055 133.355 344.695 134.202 343.402 135.108L343.192 135.255C348.503 144.401 352.288 151.257 354.547 155.822C356.805 160.386 358.003 163.845 358.14 166.197C356.857 167.043 355.424 167.786 353.841 168.426C352.317 169.077 351.2 169.416 350.49 169.444C349.518 166.27 347.628 161.786 344.821 155.991C342.048 150.172 339.242 144.974 336.403 140.399C335.474 141.154 334.476 142.035 333.41 143.042C332.987 142.661 332.616 142.244 332.298 141.789C331.956 141.3 331.536 140.552 331.04 139.545L334.395 137.196C332.336 134.106 330.878 131.689 330.021 129.945C328.483 126.856 327.914 123.998 328.316 121.373C328.728 118.689 330.14 116.502 332.551 114.813C334.089 113.737 335.54 113.242 336.903 113.329C338.277 113.357 339.477 114.105 340.505 115.573C341.533 117.041 342.203 119.41 342.514 122.682C342.801 125.919 342.437 129.117 341.42 132.277L346.295 128.863ZM339.212 128.901C339.768 126.793 339.94 124.771 339.73 122.834C339.52 120.898 339.024 119.371 338.241 118.252C337.433 117.099 336.662 116.779 335.928 117.293C334.39 118.37 334.648 120.82 336.7 124.644C337.392 125.93 338.23 127.349 339.212 128.901ZM355.607 142.5C352.548 138.131 351.448 133.771 352.308 129.419C353.177 125.008 355.29 121.627 358.645 119.278C360.707 117.834 362.757 117.154 364.795 117.238C366.833 117.321 368.451 118.219 369.651 119.932C370.825 121.61 371.379 123.331 371.313 125.096C371.282 126.837 370.875 128.45 370.092 129.936C368.467 132.897 366.734 135.256 364.892 137.015L363.744 138.053C366.289 141.167 368.785 141.867 371.232 140.154C372.07 139.567 372.815 138.733 373.465 137.653C374.115 136.573 374.555 135.64 374.786 134.853L375.131 133.673L377.564 134.47C377.554 135.05 377.35 135.948 376.951 137.165C376.553 138.381 376.134 139.456 375.693 140.39C374.449 142.927 372.622 145.041 370.21 146.729C367.798 148.418 365.294 148.895 362.697 148.162C360.1 147.428 357.737 145.541 355.607 142.5ZM361.893 135.521C363.455 133.958 364.344 132.215 364.561 130.293C364.777 128.37 364.225 126.466 362.903 124.578C361.582 122.691 360.362 122.139 359.243 122.922C357.915 123.852 357.68 125.71 358.536 128.495C359.404 131.222 360.522 133.563 361.893 135.521ZM379.973 109.188C381.001 110.656 382.304 113.52 383.881 117.781C385.433 122.007 386.601 124.679 387.384 125.797C388.143 126.88 388.679 127.312 388.994 127.092C389.204 126.945 389.775 126.05 390.708 124.407L391.117 123.652L393.293 124.863C393.174 125.363 393 126.006 392.769 126.792C392.538 127.579 391.964 128.841 391.045 130.578C390.101 132.281 389.018 133.56 387.794 134.417C386.571 135.273 385.353 135.579 384.14 135.335C382.903 135.055 381.843 134.286 380.962 133.028C380.057 131.735 378.903 129.157 377.501 125.295C376.074 121.398 375.018 118.96 374.333 117.981C373.305 116.513 371.884 115.451 370.07 114.794L369.158 114.495L368.733 113.777C370.218 111.956 373.04 109.589 377.199 106.677C378.021 106.883 378.946 107.72 379.973 109.188ZM367.903 104.67C366.715 104.461 365.717 103.779 364.909 102.626C364.102 101.472 363.864 100.128 364.195 98.5939C364.562 97.0349 365.375 95.8149 366.633 94.9339C367.891 94.0529 369.115 93.7171 370.303 93.9267C371.491 94.1362 372.49 94.8177 373.297 95.9711C374.08 97.0895 374.271 98.4404 373.869 100.024C373.502 101.583 372.707 102.791 371.484 103.647C370.261 104.504 369.067 104.845 367.903 104.67Z" fill="#941B0C"/>
</svg>
